<svg width="50" height="50" viewBox="0 0 50 50" fill="none" xmlns="http://www.w3.org/2000/svg">
<path d="M45 0H5C2.23858 0 0 2.23858 0 5V45C0 47.7614 2.23858 50 5 50H45C47.7614 50 50 47.7614 50 45V5C50 2.23858 47.7614 0 45 0Z" fill="#039BE5"/>
<path d="M13.8062 29.8917L17.0687 9.62039C17.1812 8.92953 18.1375 8.76591 18.475 9.38405L21.9812 15.7472L13.8062 29.8917ZM37 34.8186L33.8875 16.1472C33.7937 15.5654 33.0437 15.3291 32.6125 15.7472L13 34.8186L23.8562 40.7273C24.5312 41.0909 25.375 41.0909 26.05 40.7273L37 34.8186ZM28.1875 18.5289L25.675 13.8928C25.3937 13.3656 24.625 13.3656 24.3438 13.8928L13.3 32.9824L28.1875 18.5289Z" fill="white"/>
</svg>
