<svg width="50" height="50" viewBox="0 0 50 50" fill="none" xmlns="http://www.w3.org/2000/svg">
<path d="M45 0H5C2.23858 0 0 2.23858 0 5V45C0 47.7614 2.23858 50 5 50H45C47.7614 50 50 47.7614 50 45V5C50 2.23858 47.7614 0 45 0Z" fill="#1E2E3B"/>
<path d="M11.0174 16.0911C8.20483 20.3914 8.55495 25.9861 10.7035 30.5553C10.7546 30.6648 10.8081 30.7726 10.8608 30.8804C10.8946 30.9487 10.9263 31.0189 10.9613 31.0863C10.9811 31.1266 11.0033 31.1661 11.0239 31.2046C11.0606 31.2774 11.0981 31.3466 11.136 31.4176C11.2027 31.5429 11.2711 31.6674 11.3411 31.7918C11.3798 31.8602 11.4181 31.9285 11.4581 31.9969C11.5355 32.1301 11.615 32.2615 11.6962 32.393C11.73 32.4491 11.7629 32.5052 11.7975 32.5595C11.9096 32.7374 12.0241 32.9144 12.1423 33.0888C12.1452 33.0933 12.1484 33.0985 12.1521 33.1028C12.1707 33.1308 12.1913 33.158 12.2102 33.1861C12.3124 33.3359 12.4178 33.484 12.5245 33.6304C12.5636 33.6838 12.6032 33.7373 12.6427 33.7907C12.7379 33.9178 12.8347 34.044 12.9331 34.1702C12.9698 34.2175 13.0068 34.2648 13.0439 34.3113C13.1761 34.4769 13.3108 34.6417 13.4484 34.8029C13.4509 34.8054 13.4542 34.8091 13.4566 34.8117C13.4624 34.8187 13.4673 34.8231 13.4723 34.8301C13.6066 34.986 13.7441 35.1385 13.8834 35.291C13.9266 35.3384 13.9707 35.3857 14.0152 35.4321C14.1231 35.5478 14.2327 35.6617 14.3435 35.7748C14.3884 35.8203 14.4329 35.8668 14.4778 35.9106C14.6256 36.0587 14.7751 36.2042 14.9276 36.3462C14.9301 36.3487 14.9321 36.3507 14.9346 36.3523C14.9605 36.3769 14.9873 36.3996 15.0128 36.4233C15.1471 36.5469 15.2839 36.6696 15.4214 36.7905C15.4774 36.8387 15.5343 36.886 15.5907 36.9342C15.7032 37.0298 15.8169 37.1244 15.9314 37.2173C15.9919 37.2664 16.0525 37.3154 16.1134 37.3645C16.2399 37.4636 16.3672 37.5608 16.4957 37.6564C16.5426 37.6923 16.5879 37.7273 16.6349 37.7615C16.6481 37.7712 16.66 37.7808 16.6732 37.7904C16.7951 37.8798 16.9199 37.9657 17.0443 38.0516C17.0979 38.0893 17.151 38.1287 17.205 38.1655C17.3961 38.2943 17.5901 38.4214 17.7862 38.5441C17.8393 38.5766 17.8933 38.6081 17.9468 38.6405C18.091 38.729 18.236 38.8158 18.383 38.9008C18.4625 38.9464 18.5441 38.9893 18.6244 39.0331C18.7282 39.091 18.8312 39.1497 18.9366 39.2058C18.9605 39.2181 18.9852 39.2303 19.0087 39.2426C19.0511 39.2645 19.094 39.2855 19.1364 39.3083C19.2999 39.3915 19.4647 39.473 19.6311 39.5519C19.6666 39.5686 19.7007 39.5852 19.7358 39.6019C19.9265 39.6904 20.1188 39.7754 20.3128 39.8569C20.3594 39.877 20.4063 39.8963 20.4533 39.9156C20.6329 39.9892 20.815 40.062 20.9978 40.1303C21.0209 40.1391 21.0432 40.147 21.0662 40.1557C21.2668 40.2302 21.4695 40.2994 21.6734 40.3669C21.722 40.3818 21.771 40.3984 21.82 40.4133C22.0276 40.4799 22.2328 40.5597 22.4469 40.6018C36.049 43.2405 40 31.9064 40 31.9064C36.6817 36.5053 30.7914 37.7183 25.2105 36.3679C24.9992 36.317 24.7941 36.2469 24.5877 36.1821C24.5354 36.1654 24.4839 36.1488 24.4324 36.1321C24.231 36.0664 24.0312 35.9972 23.8327 35.9244C23.8055 35.9139 23.7779 35.9034 23.7503 35.8929C23.5724 35.8263 23.3965 35.7562 23.2214 35.6843C23.172 35.6633 23.1226 35.6431 23.0731 35.6221C22.8812 35.5415 22.6905 35.4573 22.5022 35.3697C22.4635 35.3521 22.4264 35.3337 22.3881 35.3162C22.2263 35.2382 22.066 35.1594 21.9066 35.0779C21.8605 35.0542 21.8143 35.0314 21.7674 35.0069C21.6422 34.9419 21.5184 34.8726 21.3949 34.8051C21.3122 34.7588 21.2282 34.715 21.1462 34.6666C20.9953 34.5808 20.8472 34.4914 20.6997 34.4002C20.6498 34.3704 20.5992 34.3417 20.5489 34.3109C20.3529 34.1881 20.1592 34.061 19.9675 33.9322C19.9145 33.8963 19.8629 33.8579 19.8106 33.8209C19.6716 33.7254 19.5332 33.6281 19.3969 33.5283C19.3517 33.4957 19.3082 33.4608 19.2636 33.4285C19.132 33.3295 19.0018 33.2293 18.8725 33.1277C18.8138 33.0814 18.7561 33.0348 18.6991 32.9885C18.5806 32.8919 18.4629 32.7946 18.3461 32.6948C18.2934 32.6501 18.2407 32.6054 18.1888 32.5608C18.0405 32.4311 17.8939 32.3005 17.7493 32.1664C17.734 32.1524 17.7175 32.1384 17.7011 32.1235C17.5446 31.9771 17.3909 31.8273 17.2389 31.6765C17.1948 31.6318 17.152 31.588 17.1088 31.5433C16.9963 31.4294 16.8855 31.3146 16.7768 31.1972C16.7331 31.1507 16.6894 31.1051 16.6466 31.0587C16.5082 30.908 16.3723 30.7555 16.2392 30.6004C16.2326 30.5925 16.2256 30.5855 16.219 30.5776C16.0782 30.4137 15.9406 30.2463 15.8059 30.0772C15.7692 30.0308 15.7338 29.9861 15.6976 29.9405C15.5971 29.8117 15.4974 29.6811 15.4002 29.5496C15.3637 29.5022 15.3273 29.4538 15.2912 29.405C15.1741 29.2434 15.0597 29.0823 14.9477 28.9186C11.8492 24.4226 10.7361 18.2217 13.2126 13.1292" fill="#0868AC"/>
<path d="M19.5583 12.546C17.4834 15.6823 17.596 19.8805 19.2146 23.1974C19.486 23.7536 19.7911 24.2929 20.1323 24.8066C20.4432 25.2744 20.7878 25.8314 21.2004 26.2075C21.35 26.3805 21.5063 26.5491 21.666 26.715C21.7063 26.7583 21.7475 26.7998 21.7887 26.8421C21.9437 27.0001 22.1013 27.1555 22.2643 27.3064C22.271 27.3117 22.2769 27.3188 22.2836 27.3241C22.2854 27.3259 22.2871 27.3266 22.2882 27.3286C22.4685 27.4946 22.6546 27.6544 22.8438 27.8115C22.8858 27.845 22.9274 27.8803 22.9698 27.9147C23.1593 28.0674 23.3526 28.2175 23.5509 28.3605C23.5568 28.365 23.5619 28.3693 23.5678 28.3737C23.6552 28.4373 23.7442 28.4964 23.8329 28.5573C23.8753 28.5865 23.9157 28.6174 23.9585 28.6447C24.1002 28.74 24.2434 28.8327 24.3892 28.9219C24.4099 28.9351 24.43 28.9466 24.4502 28.9589C24.5758 29.0348 24.7031 29.1099 24.8309 29.1823C24.8754 29.2087 24.9208 29.2317 24.9662 29.2564C25.0544 29.305 25.1427 29.3544 25.2326 29.4012C25.246 29.4082 25.2599 29.4144 25.2729 29.4206C25.4557 29.5151 25.6402 29.606 25.8284 29.6925C25.8687 29.711 25.9104 29.7278 25.9511 29.7455C26.1015 29.8125 26.2537 29.8779 26.4066 29.9397C26.4713 29.9653 26.5368 29.99 26.6016 30.0147C26.7402 30.0685 26.8793 30.118 27.0197 30.1674C27.0831 30.1886 27.1453 30.2106 27.2087 30.2309C27.4083 30.2963 27.6054 30.3784 27.8134 30.4145C38.5267 32.2788 41 23.6151 41 23.6151C38.7705 26.9879 34.4528 28.597 29.8454 27.341C29.6407 27.2845 29.439 27.2227 29.2386 27.1565C29.1773 27.1371 29.1172 27.1159 29.0562 27.0947C28.9138 27.0461 28.7722 26.9949 28.6318 26.9411C28.5676 26.9164 28.5033 26.8917 28.4402 26.8661C28.2864 26.8043 28.1343 26.7398 27.9835 26.6728C27.9423 26.6542 27.9007 26.6375 27.8604 26.618C27.6713 26.5315 27.4851 26.4406 27.3015 26.3453C27.207 26.2967 27.1141 26.2455 27.0212 26.1952C26.9675 26.1661 26.9132 26.137 26.8595 26.1078C26.7401 26.0399 26.6216 25.9692 26.5048 25.8977C26.4771 25.881 26.4481 25.8651 26.4199 25.8474C26.275 25.7583 26.1321 25.6665 25.9905 25.572C25.9468 25.5429 25.9047 25.5111 25.861 25.4811C25.7678 25.4176 25.6745 25.3531 25.5829 25.2878C25.3854 25.1448 25.1934 24.9947 25.0039 24.8429C24.9602 24.8067 24.9165 24.7714 24.8736 24.7352C22.8568 23.0627 21.2582 20.7773 20.4981 18.1857C19.7016 15.4979 19.8734 12.4807 21.2534 10.0322" fill="#0868AC"/>
<path d="M27.032 10.2739C25.8199 12.0907 25.7008 14.347 26.5419 16.3537C27.4288 18.4835 29.2463 20.1545 31.3673 20.9466C31.4548 20.9797 31.5422 21.0094 31.6309 21.0399C31.6696 21.0518 31.7079 21.0654 31.7471 21.0772C31.872 21.1171 31.9961 21.1637 32.1252 21.1883C37.9869 22.3419 39.5767 18.1246 40 17.5039C38.6072 19.5464 36.2667 20.0366 33.395 19.3267C33.1682 19.2704 32.9189 19.1871 32.7002 19.1082C32.4199 19.0064 32.1436 18.8904 31.8751 18.759C31.3652 18.5096 30.8791 18.2066 30.4286 17.8599C27.8587 15.8741 26.2624 12.0854 27.9392 9" fill="#0868AC"/>
</svg>
