<svg width="50" height="50" viewBox="0 0 50 50" fill="none" xmlns="http://www.w3.org/2000/svg">
<path d="M45 0H5C2.23858 0 0 2.23858 0 5V45C0 47.7614 2.23858 50 5 50H45C47.7614 50 50 47.7614 50 45V5C50 2.23858 47.7614 0 45 0Z" fill="#AB47BC"/>
<path fill-rule="evenodd" clip-rule="evenodd" d="M31.5584 31.3485C32.8131 31.2198 33.765 30.1474 33.7217 28.8605C33.6785 27.5737 32.5968 26.5442 31.2988 26.5442H31.2123C29.871 26.5871 28.8326 27.7024 28.8759 29.0321C28.9192 29.6756 29.1788 30.2332 29.5682 30.6193C28.0971 33.4932 25.8472 35.5951 22.4725 37.3538C20.1793 38.5549 17.7997 38.9839 15.42 38.6836C13.473 38.4262 11.9587 37.5683 11.0069 36.1528C9.62233 34.0509 9.49253 31.7774 10.6607 29.504C11.4828 27.8739 12.7808 26.6729 13.6028 26.0723C13.4298 25.5147 13.1702 24.571 13.0404 23.8847C6.76674 28.3887 7.41574 34.4798 9.31946 37.3538C10.7473 39.4986 13.6461 40.8284 16.8478 40.8284C17.7132 40.8284 18.5785 40.7426 19.4438 40.5281C24.9819 39.4557 29.1788 36.1957 31.5584 31.3485Z" fill="white"/>
<path fill-rule="evenodd" clip-rule="evenodd" d="M39.1733 26.0295C35.885 22.2118 31.0392 20.1099 25.5011 20.1099H24.8088C24.4194 19.3378 23.5974 18.8231 22.6888 18.8231H22.6022C21.261 18.8659 20.2226 19.9812 20.2659 21.311C20.3091 22.5978 21.3908 23.6273 22.6888 23.6273H22.7753C23.7272 23.5844 24.5492 22.9839 24.8954 22.1689H25.6742C28.9624 22.1689 32.0776 23.1126 34.8899 24.9571C37.0532 26.3726 38.6108 28.2171 39.4762 30.4477C40.2117 32.2493 40.1684 34.008 39.3896 35.5094C38.1782 37.7828 36.1446 39.0268 33.4621 39.0268C31.7315 39.0268 30.0873 38.512 29.222 38.126C28.7461 38.5549 27.8808 39.2413 27.275 39.6702C29.1355 40.5281 31.0392 41 32.8564 41C37.01 41 40.0819 38.7265 41.2501 36.4531C42.5048 33.9651 42.4183 29.6756 39.1733 26.0295Z" fill="white"/>
<path fill-rule="evenodd" clip-rule="evenodd" d="M17.1939 32.0777C17.2372 33.3646 18.3189 34.3941 19.6169 34.3941H19.7034C21.0447 34.3512 22.083 33.2359 22.0398 31.9061C21.9965 30.6193 20.9149 29.5898 19.6169 29.5898H19.5303C19.4438 29.5898 19.314 29.5898 19.2275 29.6327C17.4535 26.7158 16.718 23.5415 16.9776 20.1099C17.1507 17.5362 18.016 15.3056 19.5303 13.4611C20.7851 11.874 23.208 11.1019 24.8521 11.059C29.4383 10.9732 31.3853 16.6354 31.5151 18.9088C32.0776 19.0375 33.0295 19.3378 33.6785 19.5523C33.1593 12.6032 28.8326 9 24.679 9C20.7851 9 17.1939 11.7882 15.7661 15.9062C13.7759 21.3968 15.0739 26.6729 17.4968 30.8338C17.2805 31.134 17.1507 31.6059 17.1939 32.0777Z" fill="white"/>
<path fill-rule="evenodd" clip-rule="evenodd" d="M31.5584 31.3485C32.8131 31.2198 33.765 30.1474 33.7217 28.8605C33.6785 27.5737 32.5968 26.5442 31.2988 26.5442H31.2123C29.871 26.5871 28.8326 27.7024 28.8759 29.0321C28.9192 29.6756 29.1788 30.2332 29.5682 30.6193C28.0971 33.4932 25.8472 35.5951 22.4725 37.3538C20.1793 38.5549 17.7997 38.9839 15.42 38.6836C13.473 38.4262 11.9587 37.5683 11.0069 36.1528C9.62233 34.0509 9.49253 31.7774 10.6607 29.504C11.4828 27.8739 12.7808 26.6729 13.6028 26.0723C13.4298 25.5147 13.1702 24.571 13.0404 23.8847C6.76674 28.3887 7.41574 34.4798 9.31946 37.3538C10.7473 39.4986 13.6461 40.8284 16.8478 40.8284C17.7132 40.8284 18.5785 40.7426 19.4438 40.5281C24.9819 39.4557 29.1788 36.1957 31.5584 31.3485Z" stroke="white" stroke-width="0.435465" stroke-linejoin="round"/>
<path fill-rule="evenodd" clip-rule="evenodd" d="M39.1733 26.0295C35.885 22.2118 31.0392 20.1099 25.5011 20.1099H24.8088C24.4194 19.3378 23.5974 18.8231 22.6888 18.8231H22.6022C21.261 18.8659 20.2226 19.9812 20.2659 21.311C20.3091 22.5978 21.3908 23.6273 22.6888 23.6273H22.7753C23.7272 23.5844 24.5492 22.9839 24.8954 22.1689H25.6742C28.9624 22.1689 32.0776 23.1126 34.8899 24.9571C37.0532 26.3726 38.6108 28.2171 39.4762 30.4477C40.2117 32.2493 40.1684 34.008 39.3896 35.5094C38.1782 37.7828 36.1446 39.0268 33.4621 39.0268C31.7315 39.0268 30.0873 38.512 29.222 38.126C28.7461 38.5549 27.8808 39.2413 27.275 39.6702C29.1355 40.5281 31.0392 41 32.8564 41C37.01 41 40.0819 38.7265 41.2501 36.4531C42.5048 33.9651 42.4183 29.6756 39.1733 26.0295Z" stroke="white" stroke-width="0.435465" stroke-linejoin="round"/>
<path fill-rule="evenodd" clip-rule="evenodd" d="M17.1939 32.0777C17.2372 33.3646 18.3189 34.3941 19.6169 34.3941H19.7034C21.0447 34.3512 22.083 33.2359 22.0398 31.9061C21.9965 30.6193 20.9149 29.5898 19.6169 29.5898H19.5303C19.4438 29.5898 19.314 29.5898 19.2275 29.6327C17.4535 26.7158 16.718 23.5415 16.9776 20.1099C17.1507 17.5362 18.016 15.3056 19.5303 13.4611C20.7851 11.874 23.208 11.1019 24.8521 11.059C29.4383 10.9732 31.3853 16.6354 31.5151 18.9088C32.0776 19.0375 33.0295 19.3378 33.6785 19.5523C33.1593 12.6032 28.8326 9 24.679 9C20.7851 9 17.1939 11.7882 15.7661 15.9062C13.7759 21.3968 15.0739 26.6729 17.4968 30.8338C17.2805 31.134 17.1507 31.6059 17.1939 32.0777Z" stroke="white" stroke-width="0.435465" stroke-linejoin="round"/>
</svg>
